<?xml version="1.0" encoding="UTF-8"?>
<svg id="Layer_2" data-name="Layer 2" xmlns="http://www.w3.org/2000/svg" viewBox="0 0 71.65 71.65">
  <defs>
    <style>
      .cls-1 {
        fill: none;
        stroke: #000;
        stroke-linecap: round;
        stroke-linejoin: round;
        stroke-width: 4px;
      }

      .cls-2 {
        stroke-width: 0px;
      }
    </style>
  </defs>
  <g id="OBJECTS">
    <g>
      <path class="cls-2" d="m15.03,48.93c4.57.4,8.58-.69,12.29-3.34-.8-.2-1.48-.34-2.14-.55-2.48-.78-4.21-2.43-5.28-4.77-.33-.72-.26-.78.53-.77.82.01,1.65.13,2.61-.23-1.48-.43-2.67-1.08-3.68-2.02-1.61-1.5-2.57-3.35-2.74-5.57-.07-.9.05-.96.84-.59.78.36,1.59.59,2.57.6-.61-.7-1.27-1.21-1.74-1.89-1.87-2.71-2.19-5.58-.9-8.62.34-.81.48-.84,1.06-.18,2.86,3.21,6.29,5.58,10.37,6.99,1.8.62,3.64,1.03,5.53,1.22.97.1,1.05,0,.94-.95-.4-3.39,1.52-6.93,4.62-8.54,3.11-1.62,7.1-1.16,9.63,1.16.49.45.96.55,1.58.38,1.32-.36,2.6-.83,3.81-1.47.19-.1.35-.3.7-.17-.58,1.81-1.73,3.19-3.18,4.38,1.43-.17,2.77-.58,4.15-1.12.03.48-.25.72-.45.97-.85,1.1-1.8,2.12-2.92,2.95-.53.39-.7.83-.69,1.47.09,5.7-1.74,10.78-5.15,15.28-4.05,5.35-9.48,8.37-16.12,9.17-5.49.67-10.65-.37-15.46-3.13-.17-.1-.34-.21-.51-.33-.06-.04-.1-.11-.28-.32Z"/>
      <rect class="cls-1" x="2" y="2" width="67.65" height="67.65" rx="12.61" ry="12.61"/>
    </g>
  </g>
</svg>