<?xml version="1.0" encoding="UTF-8"?>
<svg id="Layer_2" data-name="Layer 2" xmlns="http://www.w3.org/2000/svg" viewBox="0 0 71.65 71.65">
  <defs>
    <style>
      .cls-1 {
        fill: none;
        stroke: #000;
        stroke-linecap: round;
        stroke-linejoin: round;
        stroke-width: 4px;
      }

      .cls-2 {
        stroke-width: 0px;
      }
    </style>
  </defs>
  <g id="OBJECTS">
    <g>
      <g>
        <path class="cls-2" d="m14.51,26.02c.37-1.95.72-3.9,1.78-5.64,2.42-3.95,6.21-5.47,10.57-5.57,5.95-.15,11.91-.14,17.87,0,4.04.1,7.64,1.43,10.1,4.93,1.58,2.26,2.17,4.84,2.21,7.51.09,5.72.13,11.45,0,17.17-.11,4.61-1.71,8.54-6.02,10.88-1.99,1.08-4.18,1.55-6.41,1.58-5.88.07-11.76.13-17.64,0-4.41-.1-8.24-1.59-10.69-5.58-1.06-1.73-1.41-3.69-1.78-5.64v-19.63Zm21.33-7.18c-2.92,0-5.84-.06-8.76.01-4.56.11-7.36,2.24-8.19,6.17-.18.83-.31,1.69-.31,2.54-.03,5.53-.1,11.06.01,16.59.11,5.5,2.89,8.44,8.2,8.64,5.99.22,11.99.2,17.98,0,4.42-.15,7.05-2.27,7.89-6.09.15-.68.29-1.38.3-2.08.03-6.3.38-12.61-.19-18.9-.34-3.73-2.83-6.16-6.55-6.67-3.45-.47-6.92-.14-10.38-.21Z"/>
        <path class="cls-2" d="m46.82,35.91c-.02,5.94-4.95,10.82-11,10.89-6.07.07-11.11-4.94-11.09-11.03.02-5.99,5.13-11.01,11.11-10.89,6.14.12,10.99,5,10.97,11.03Zm-4.09-.05c0-3.78-3.11-6.88-6.93-6.9-3.8-.02-6.96,3.09-6.97,6.86,0,3.78,3.11,6.88,6.93,6.9,3.8.02,6.96-3.09,6.97-6.86Z"/>
        <path class="cls-2" d="m47.12,21.99c1.46-.02,2.7,1.19,2.7,2.64,0,1.38-1.2,2.57-2.61,2.61-1.46.04-2.73-1.15-2.75-2.59-.03-1.45,1.17-2.64,2.67-2.66Z"/>
      </g>
      <rect class="cls-1" x="2" y="2" width="67.65" height="67.65" rx="12.61" ry="12.61"/>
    </g>
  </g>
</svg>