<?xml version="1.0" encoding="UTF-8"?>
<svg id="Layer_2" data-name="Layer 2" xmlns="http://www.w3.org/2000/svg" viewBox="0 0 71.65 71.65">
  <defs>
    <style>
      .cls-1 {
        fill: none;
        stroke: #000;
        stroke-linecap: round;
        stroke-linejoin: round;
        stroke-width: 4px;
      }

      .cls-2 {
        stroke-width: 0px;
      }
    </style>
  </defs>
  <g id="OBJECTS">
    <g>
      <g>
        <path class="cls-2" d="m44.24,35.62c.02.1.03.2.02.31.02-.1.02-.21-.02-.31Z"/>
        <path class="cls-2" d="m36.54,18.79c-21.74,0-22.12,1.93-22.12,17.03s.38,17.03,22.12,17.03,22.12-1.93,22.12-17.03-.38-17.03-22.12-17.03Zm7.05,18.15l-9.98,4.82c-.8.39-1.73-.2-1.73-1.09v-9.43c0-.88.91-1.47,1.71-1.1l9.98,4.6c.39.18.6.51.67.87.04.1.04.21.02.31-.03.41-.24.8-.67,1.01Z"/>
      </g>
      <rect class="cls-1" x="2" y="2" width="67.65" height="67.65" rx="12.61" ry="12.61"/>
    </g>
  </g>
</svg>